# xmcd
#
# Track frame offsets: 
#        150
#        10721
#        22662
#        36799
#        46953
#        62213
#        75445
#        91670
#        102706
#        116198
#        128345
#        139601
#        152198
#        163064
#        175169
#        189384
#        200043
#        210507
#        222136
#
# Disc length: 3123 seconds
#
# Revision: 1
# Processed by: cddbd v1.5.2PL0 Copyright (c) Steve Scherf et al.
# Submitted via: ExactAudioCopyFreeDBPlugin 1.0
#
DISCID=f60c3113
DTITLE=Various Artist - Country Moods and Memories - Disc 4
DYEAR=2003
DGENRE=Country
TTITLE0=George Jones and Tammy Wynette - Near You
TTITLE1=The Oak Ridge Boys - Elvira
TTITLE2=Conway Twitty and Loretta Lynn - I Still Believe In Waltzes
TTITLE3=The Statler Brothers - Hello Mary Lou
TTITLE4=David Frizzel and Shelby West - You're The Reason God Made Oklah
TTITLE4=oma
TTITLE5=Waylon Jennings and Willie Nelson - Good Hearted Woman
TTITLE6=Earl Thomas Conley and Emmylou Harris - We Believe In Happy Endi
TTITLE6=ngs
TTITLE7=Johnny Lee and Lane Brody - The Yellow Rose (Of Texas)
TTITLE8=Jim Reeves and Patsy Cline - Have You Ever Been Lonely
TTITLE9=Hank Williams - Your Cheating Heart
TTITLE10=Don Gibson - Oh Lonesome Me
TTITLE11=Patsy Cline - I Fall To Pieces
TTITLE12=Eddy Arnold - Bouquet Of Roses
TTITLE13=Ray Price - Release Me
TTITLE14=B. J. Thomas - I'm So Lonely I Could Cry
TTITLE15=Porter Wagoner - Green Green Grass
TTITLE16=Willie Nelson - Blue Eyes Crying In The Rain
TTITLE17=Jack Greene - There Goes My Everything
TTITLE18=Freddy Fender - Vayo Con Dios
EXTD=
EXTT0=
EXTT1=
EXTT2=
EXTT3=
EXTT4=
EXTT5=
EXTT6=
EXTT7=
EXTT8=
EXTT9=
EXTT10=
EXTT11=
EXTT12=
EXTT13=
EXTT14=
EXTT15=
EXTT16=
EXTT17=
EXTT18=
PLAYORDER=
